<svg width="100" height="85" viewBox="0 0 100 85" fill="none" xmlns="http://www.w3.org/2000/svg">
  <path d="M10.89 76.2048C10.89 75.9743 10.8796 75.674 10.8586 75.3038C10.8446 74.9336 10.8237 74.5251 10.7958 74.078C10.7678 73.631 10.7364 73.1561 10.7015 72.6532C10.6665 72.1503 10.6281 71.6509 10.5862 71.155C10.5443 70.6591 10.5024 70.1807 10.4605 69.7197C10.4256 69.2517 10.3906 68.8292 10.3557 68.452C10.2998 67.9142 10.223 67.5196 10.1252 67.2681C10.0275 67.0167 9.86681 66.8909 9.6433 66.8909C9.43376 66.8909 9.29407 66.9503 9.22423 67.069C9.16137 67.1878 9.12295 67.3345 9.10898 67.5091C9.102 67.6837 9.09851 67.8758 9.09851 68.0853C9.10549 68.2879 9.07406 68.4764 9.00422 68.651C8.94135 68.8257 8.81912 68.9723 8.63753 69.0911C8.45593 69.2098 8.17655 69.2692 7.79938 69.2692C7.53397 69.2692 7.30697 69.1609 7.11839 68.9444C6.92981 68.7209 6.83551 68.3996 6.83551 67.9805C6.83551 67.3938 7.01013 66.863 7.35935 66.3881C7.7016 65.9061 8.18702 65.4975 8.81563 65.1623C9.44424 64.82 10.2021 64.5546 11.0891 64.366C11.9761 64.1774 12.961 64.0832 14.0436 64.0832C14.8188 64.0832 15.5348 64.1705 16.1913 64.3451C16.8479 64.5127 17.4136 64.7502 17.8886 65.0575C18.3705 65.3578 18.7477 65.7175 19.0201 66.1366C19.2924 66.5487 19.4286 66.9992 19.4286 67.4881C19.4286 68.0399 19.268 68.5672 18.9467 69.0701C18.6254 69.573 18.1819 70.034 17.6162 70.4531C17.0574 70.8721 16.3974 71.2388 15.636 71.5531C14.8747 71.8604 14.0575 72.1014 13.1845 72.276C12.94 72.3179 12.8178 72.4681 12.8178 72.7265C12.8178 72.9011 12.8283 73.1212 12.8492 73.3866C12.8771 73.645 12.9016 73.9174 12.9225 74.2038C12.9505 74.4901 12.9749 74.773 12.9959 75.0524C13.0238 75.3318 13.0378 75.5797 13.0378 75.7962C13.0378 76.1874 12.947 76.4668 12.7654 76.6344C12.5838 76.802 12.3149 76.8858 11.9587 76.8858C11.6234 76.8858 11.3615 76.8265 11.1729 76.7077C10.9843 76.596 10.89 76.4283 10.89 76.2048ZM17.2599 67.7919C17.2599 67.5545 17.1587 67.3275 16.9561 67.111C16.7536 66.8944 16.4812 66.7024 16.1389 66.5347C15.7967 66.3671 15.3986 66.2344 14.9446 66.1366C14.4976 66.0388 14.0261 65.9899 13.5302 65.9899C13.2857 65.9899 13.0797 66.0004 12.9121 66.0214C12.7514 66.0353 12.6222 66.0633 12.5244 66.1052C12.4266 66.1471 12.3568 66.203 12.3149 66.2728C12.28 66.3357 12.2625 66.4195 12.2625 66.5243C12.2625 66.5941 12.273 66.7582 12.2939 67.0167C12.3149 67.2681 12.3428 67.5615 12.3778 67.8967C12.4127 68.232 12.4476 68.5847 12.4825 68.9549C12.5244 69.3181 12.5663 69.6463 12.6082 69.9397C12.6292 70.1562 12.6571 70.2994 12.6921 70.3692C12.734 70.4391 12.7968 70.474 12.8806 70.474C13.1181 70.474 13.3905 70.4356 13.6978 70.3588C14.0051 70.275 14.3195 70.1667 14.6407 70.034C14.969 69.8943 15.2868 69.7371 15.5941 69.5625C15.9084 69.3809 16.1878 69.1924 16.4323 68.9968C16.6837 68.7942 16.8828 68.5917 17.0295 68.3891C17.1831 68.1796 17.2599 67.9805 17.2599 67.7919ZM20.2354 71.5217C20.2354 71.403 20.2493 71.2703 20.2773 71.1236C20.3052 70.9769 20.3192 70.8163 20.3192 70.6416C20.3192 70.5229 20.2668 70.4321 20.162 70.3692C20.0642 70.3064 19.9525 70.2365 19.8268 70.1597C19.701 70.0829 19.5858 69.9851 19.481 69.8664C19.3832 69.7476 19.3344 69.5765 19.3344 69.353C19.3344 69.1924 19.3763 69.0317 19.4601 68.8711C19.5509 68.7104 19.6801 68.5637 19.8477 68.431C20.2598 68.1237 20.6859 67.8478 21.1259 67.6034C21.5729 67.3589 22.0164 67.1529 22.4564 66.9852C22.9035 66.8176 23.3435 66.6884 23.7765 66.5976C24.2096 66.5068 24.6251 66.4614 25.0233 66.4614C25.6938 66.4614 26.3224 66.5871 26.9091 66.8386C27.5028 67.083 28.0161 67.4218 28.4492 67.8548C28.8892 68.2809 29.2349 68.7838 29.4864 69.3635C29.7448 69.9362 29.874 70.5508 29.874 71.2074C29.874 71.85 29.7378 72.4611 29.4654 73.0408C29.2 73.6136 28.8403 74.1165 28.3863 74.5495C27.9323 74.9825 27.398 75.3248 26.7834 75.5762C26.1757 75.8347 25.5331 75.9639 24.8556 75.9639C24.1921 75.9639 23.5775 75.8521 23.0117 75.6286C22.446 75.4051 21.9571 75.0978 21.545 74.7066C21.1329 74.3085 20.8116 73.8406 20.5811 73.3028C20.3506 72.758 20.2354 72.1643 20.2354 71.5217ZM25.0861 74.078C25.3795 74.078 25.6833 74.0187 25.9976 73.8999C26.3119 73.7812 26.5983 73.6101 26.8567 73.3866C27.1221 73.1561 27.3386 72.8767 27.5063 72.5484C27.6809 72.2202 27.7682 71.85 27.7682 71.4379C27.7682 71.0188 27.6914 70.6277 27.5377 70.2645C27.384 69.9013 27.171 69.587 26.8986 69.3216C26.6332 69.0492 26.3154 68.8361 25.9452 68.6825C25.582 68.5288 25.1874 68.452 24.7613 68.452C23.9861 68.452 23.3924 68.6545 22.9803 69.0596C22.5682 69.4578 22.3622 70.0724 22.3622 70.9036C22.3622 71.3576 22.4285 71.7801 22.5612 72.1713C22.7009 72.5554 22.893 72.8907 23.1374 73.177C23.3819 73.4564 23.6683 73.6764 23.9965 73.8371C24.3318 73.9977 24.695 74.078 25.0861 74.078ZM32.2208 62.8993C32.2208 62.5291 32.3256 62.2707 32.5351 62.124C32.7447 61.9703 33.0904 61.8935 33.5724 61.8935C33.747 61.8935 33.8936 61.911 34.0124 61.9459C34.1381 61.9738 34.2429 62.0297 34.3267 62.1135C34.4175 62.1973 34.4873 62.3091 34.5362 62.4488C34.5921 62.5815 34.6375 62.7526 34.6724 62.9621C34.7562 63.6117 34.847 64.2822 34.9448 64.9737C35.0496 65.6652 35.1578 66.3601 35.2696 67.0586C35.3115 67.3729 35.4756 67.53 35.762 67.53C35.8388 67.53 35.9646 67.523 36.1392 67.5091C36.3208 67.4881 36.5338 67.4672 36.7783 67.4462C37.0227 67.4183 37.2846 67.3903 37.564 67.3624C37.8504 67.3345 38.1333 67.31 38.4126 67.2891C38.699 67.2611 38.9679 67.2402 39.2194 67.2262C39.4778 67.2052 39.7048 67.1948 39.9003 67.1948C40.054 67.1948 40.1762 67.2262 40.267 67.2891C40.3578 67.3449 40.4277 67.4218 40.4766 67.5196C40.5325 67.6104 40.5674 67.7151 40.5813 67.8339C40.6023 67.9456 40.6128 68.0609 40.6128 68.1796C40.6128 68.2844 40.5918 68.3926 40.5499 68.5044C40.515 68.6161 40.4626 68.7174 40.3928 68.8082C40.3299 68.892 40.2496 68.9619 40.1518 69.0177C40.054 69.0736 39.9423 69.1016 39.8165 69.1016C39.2089 69.1016 38.5942 69.1225 37.9726 69.1644C37.358 69.1993 36.7433 69.2482 36.1287 69.3111C35.8144 69.353 35.6572 69.5101 35.6572 69.7825C35.6572 69.8035 35.6607 69.8314 35.6677 69.8664C35.6747 69.8943 35.6782 69.9187 35.6782 69.9397C35.762 70.5474 35.8388 71.1166 35.9087 71.6474C35.9855 72.1782 36.0484 72.6532 36.0973 73.0723C36.1531 73.4844 36.195 73.8301 36.223 74.1095C36.2579 74.3819 36.2754 74.5635 36.2754 74.6543C36.2754 74.9057 36.2509 75.1152 36.202 75.2829C36.1531 75.4575 36.0728 75.5972 35.9611 75.7019C35.8493 75.8137 35.6991 75.8905 35.5106 75.9324C35.329 75.9813 35.0985 76.0058 34.8191 76.0058C34.5537 76.0058 34.3581 75.9429 34.2324 75.8172C34.1067 75.6915 34.0368 75.4994 34.0229 75.241C33.9809 74.4168 33.9146 73.5891 33.8238 72.758C33.733 71.9198 33.6282 71.0852 33.5095 70.254C33.4466 69.9537 33.2895 69.8035 33.038 69.8035C33.0171 69.8035 32.9926 69.807 32.9647 69.814C32.9368 69.821 32.9123 69.8245 32.8914 69.8245C32.4583 69.9222 32.0497 70.02 31.6656 70.1178C31.2814 70.2156 30.9217 70.3204 30.5865 70.4321C30.3979 70.495 30.2302 70.5404 30.0836 70.5683C29.9369 70.5893 29.8042 70.5997 29.6855 70.5997C29.5248 70.5997 29.4061 70.5299 29.3292 70.3902C29.2524 70.2435 29.214 70.0619 29.214 69.8454C29.214 69.7686 29.221 69.6813 29.2349 69.5835C29.2489 69.4787 29.2769 69.3774 29.3188 69.2797C29.3537 69.1749 29.4096 69.0806 29.4864 68.9968C29.5562 68.906 29.654 68.8326 29.7797 68.7768C30.0731 68.658 30.4642 68.5358 30.9531 68.4101C31.4421 68.2774 31.9938 68.1551 32.6085 68.0434C32.7482 68.0085 32.8564 67.9526 32.9333 67.8758C33.0171 67.7919 33.059 67.6697 33.059 67.5091C33.059 67.4742 33.059 67.4392 33.059 67.4043C33.059 67.3624 33.052 67.3205 33.038 67.2786C32.9263 66.636 32.818 66.0528 32.7133 65.529C32.6155 64.9981 32.5282 64.5441 32.4513 64.167C32.3815 63.7898 32.3256 63.493 32.2837 63.2764C32.2418 63.0599 32.2208 62.9342 32.2208 62.8993ZM41.5766 64.3136C41.3741 64.3136 41.182 64.2857 41.0004 64.2298C40.8258 64.167 40.6721 64.0832 40.5394 63.9784C40.4137 63.8666 40.3124 63.7374 40.2356 63.5907C40.1588 63.4441 40.1204 63.2834 40.1204 63.1088C40.1204 62.8155 40.2356 62.578 40.4661 62.3964C40.7036 62.2148 41.0179 62.124 41.409 62.124C41.5906 62.124 41.7652 62.1589 41.9329 62.2288C42.1005 62.2916 42.2472 62.3789 42.3729 62.4907C42.5056 62.6024 42.6104 62.7351 42.6872 62.8888C42.764 63.0355 42.8024 63.1891 42.8024 63.3498C42.8024 63.6501 42.6907 63.8876 42.4672 64.0622C42.2507 64.2298 41.9538 64.3136 41.5766 64.3136ZM40.1413 67.5091C40.1413 67.2646 40.2461 67.0656 40.4556 66.9119C40.6721 66.7513 40.955 66.6709 41.3042 66.6709C41.9329 66.6709 42.2681 66.8875 42.31 67.3205C42.338 67.6208 42.3659 67.9596 42.3938 68.3367C42.4288 68.7139 42.4602 69.1155 42.4881 69.5416C42.523 69.9607 42.551 70.3972 42.5719 70.8512C42.5999 71.2982 42.6243 71.7417 42.6453 72.1817C42.6662 72.6148 42.6837 73.0339 42.6977 73.439C42.7116 73.8441 42.7186 74.2142 42.7186 74.5495C42.7186 74.8987 42.5929 75.1606 42.3414 75.3353C42.097 75.5099 41.7373 75.5972 41.2623 75.5972C41.0458 75.5972 40.8747 75.5448 40.749 75.44C40.6302 75.3422 40.5709 75.1956 40.5709 75C40.5709 74.0361 40.5464 73.1351 40.4975 72.297C40.4556 71.4519 40.4067 70.701 40.3509 70.0445C40.302 69.3879 40.2531 68.8431 40.2042 68.4101C40.1623 67.9701 40.1413 67.6697 40.1413 67.5091ZM46.7522 70.7045C46.7522 71.1236 46.8535 71.5147 47.056 71.8779C47.2656 72.2341 47.5379 72.5484 47.8732 72.8208C48.2085 73.0862 48.5926 73.2958 49.0257 73.4494C49.4587 73.5961 49.9022 73.6694 50.3562 73.6694C50.4959 73.6694 50.6391 73.659 50.7858 73.638C50.9324 73.6101 51.0651 73.5647 51.1839 73.5018C51.3026 73.439 51.4004 73.3586 51.4772 73.2608C51.5541 73.1561 51.5925 73.0269 51.5925 72.8732C51.5925 72.5799 51.4877 72.29 51.2782 72.0036C51.0756 71.7173 50.8067 71.4344 50.4715 71.155C50.1362 70.8686 49.752 70.5858 49.319 70.3064C48.886 70.02 48.4459 69.7371 47.9989 69.4578C47.5519 69.1784 47.1119 68.899 46.6788 68.6196C46.2458 68.3333 45.8617 68.0504 45.5264 67.771C45.1911 67.4846 44.9187 67.1983 44.7092 66.9119C44.5067 66.6185 44.4054 66.3252 44.4054 66.0318C44.4054 65.7525 44.4752 65.494 44.6149 65.2566C44.7616 65.0121 44.9537 64.7921 45.1911 64.5965C45.4286 64.401 45.7045 64.2263 46.0188 64.0727C46.3331 63.919 46.6614 63.7898 47.0036 63.685C47.3459 63.5803 47.6881 63.5034 48.0304 63.4545C48.3796 63.3987 48.7114 63.3707 49.0257 63.3707C49.2561 63.3707 49.5076 63.3777 49.78 63.3917C50.0594 63.3987 50.3178 63.4301 50.5553 63.486C50.7997 63.5349 51.0023 63.6117 51.1629 63.7165C51.3236 63.8212 51.4039 63.9714 51.4039 64.167C51.4039 64.2298 51.3934 64.3102 51.3725 64.4079C51.3515 64.4987 51.2921 64.6524 51.1944 64.8689C51.0966 65.0715 50.9813 65.2251 50.8486 65.3299C50.7229 65.4277 50.5588 65.4766 50.3562 65.4766C50.0698 65.4766 49.766 65.4451 49.4447 65.3823C49.1304 65.3124 48.8126 65.2775 48.4913 65.2775C48.3167 65.2775 48.1386 65.288 47.957 65.3089C47.7824 65.3229 47.6218 65.3543 47.4751 65.4032C47.3284 65.4451 47.2097 65.5115 47.1189 65.6023C47.0281 65.6861 46.9827 65.7944 46.9827 65.9271C46.9827 66.0598 47.077 66.21 47.2656 66.3776C47.4611 66.5452 47.7161 66.7303 48.0304 66.9329C48.3516 67.1354 48.7148 67.3589 49.1199 67.6034C49.5251 67.8408 49.9371 68.0993 50.3562 68.3787C50.7823 68.651 51.1978 68.9444 51.603 69.2587C52.0081 69.566 52.3678 69.8943 52.6821 70.2435C53.0034 70.5858 53.2583 70.949 53.4469 71.3331C53.6424 71.7173 53.7402 72.1154 53.7402 72.5275C53.7402 73.0304 53.625 73.4739 53.3945 73.858C53.164 74.2422 52.8672 74.5635 52.504 74.8219C52.1408 75.0803 51.7392 75.2724 51.2991 75.3981C50.8591 75.5308 50.4295 75.5972 50.0105 75.5972C49.5844 75.5972 49.1514 75.5448 48.7114 75.44C48.2783 75.3422 47.8592 75.1991 47.4541 75.0105C47.049 74.8289 46.6684 74.6089 46.3122 74.3504C45.9629 74.085 45.6591 73.7917 45.4007 73.4704C45.1422 73.1421 44.9362 72.7894 44.7825 72.4122C44.6359 72.0351 44.5625 71.6404 44.5625 71.2283C44.5625 71.0537 44.573 70.8791 44.594 70.7045C44.6219 70.5229 44.6673 70.3658 44.7302 70.233C44.793 70.0934 44.8803 69.9816 44.9921 69.8978C45.1038 69.807 45.247 69.7616 45.4216 69.7616C45.4775 69.7616 45.5404 69.7686 45.6102 69.7825C45.6801 69.7895 45.8023 69.821 45.9769 69.8768C46.1795 69.9397 46.3576 70.041 46.5112 70.1807C46.6719 70.3134 46.7522 70.488 46.7522 70.7045ZM58.3081 66.3566C58.6713 66.3566 59.024 66.409 59.3663 66.5138C59.7085 66.6185 60.0089 66.7617 60.2673 66.9433C60.5327 67.1179 60.7457 67.3205 60.9064 67.551C61.067 67.7745 61.1473 68.005 61.1473 68.2425C61.1473 68.3961 61.1159 68.5463 61.053 68.693C60.9902 68.8326 60.9064 68.9584 60.8016 69.0701C60.6968 69.1749 60.5781 69.2622 60.4454 69.332C60.3127 69.3949 60.173 69.4263 60.0263 69.4263C59.8657 69.4263 59.719 69.367 59.5863 69.2482C59.4536 69.1225 59.3104 68.9863 59.1567 68.8396C59.0101 68.686 58.8424 68.5498 58.6539 68.431C58.4723 68.3053 58.2522 68.2425 57.9938 68.2425C57.7424 68.2425 57.5154 68.3018 57.3128 68.4206C57.1103 68.5393 56.9391 68.7069 56.7995 68.9234C56.6668 69.133 56.562 69.3844 56.4852 69.6778C56.4153 69.9641 56.3804 70.2784 56.3804 70.6207C56.3804 71.5985 56.5655 72.3459 56.9357 72.8627C57.3058 73.3726 57.8367 73.6275 58.5281 73.6275C58.8564 73.6275 59.1358 73.5752 59.3663 73.4704C59.6038 73.3656 59.8098 73.2504 59.9844 73.1246C60.166 72.9989 60.3301 72.8837 60.4768 72.7789C60.6235 72.6741 60.7737 72.6218 60.9273 72.6218C61.0111 72.6218 61.095 72.6497 61.1788 72.7056C61.2626 72.7545 61.3359 72.8208 61.3988 72.9046C61.4686 72.9815 61.5245 73.0688 61.5664 73.1666C61.6153 73.2643 61.6397 73.3621 61.6397 73.4599C61.6397 73.6904 61.5245 73.9279 61.294 74.1723C61.0705 74.4168 60.7806 74.6403 60.4244 74.8428C60.0682 75.0384 59.6701 75.1991 59.2301 75.3248C58.797 75.4505 58.3745 75.5134 57.9624 75.5134C57.4106 75.5134 56.9042 75.4051 56.4432 75.1886C55.9823 74.979 55.5841 74.6857 55.2489 74.3085C54.9136 73.9244 54.6517 73.4669 54.4631 72.9361C54.2815 72.4052 54.1907 71.8185 54.1907 71.176C54.1907 70.4775 54.292 69.8349 54.4946 69.2482C54.7041 68.6615 54.9905 68.1551 55.3537 67.7291C55.7238 67.296 56.1604 66.9608 56.6633 66.7233C57.1661 66.4789 57.7144 66.3566 58.3081 66.3566ZM67.5801 67.1633C67.3217 67.1633 67.0947 67.2332 66.8991 67.3729C66.7035 67.5056 66.5359 67.6942 66.3962 67.9386C66.2565 68.1761 66.1413 68.459 66.0505 68.7872C65.9597 69.1085 65.8863 69.4613 65.8305 69.8454C65.7746 70.2296 65.7362 70.6312 65.7152 71.0502C65.6943 71.4693 65.6838 71.8919 65.6838 72.3179C65.6838 72.8767 65.7047 73.4285 65.7467 73.9733C65.7955 74.5111 65.82 75.0105 65.82 75.4715C65.82 75.7718 65.7082 76.0058 65.4847 76.1734C65.2612 76.348 64.9434 76.4353 64.5313 76.4353C64.4545 76.4353 64.3672 76.4283 64.2694 76.4144C64.1716 76.4004 64.0774 76.3725 63.9866 76.3306C63.9027 76.2886 63.8259 76.2293 63.7561 76.1524C63.6932 76.0826 63.6583 75.9848 63.6513 75.8591C63.5884 75.2445 63.4976 74.6159 63.3789 73.9733C63.2602 73.3307 63.11 72.6916 62.9284 72.056C62.7538 71.4134 62.5408 70.7778 62.2893 70.1492C62.0448 69.5206 61.762 68.906 61.4407 68.3053C61.3848 68.2005 61.3359 68.1028 61.294 68.012C61.2591 67.9212 61.2416 67.8339 61.2416 67.75C61.2416 67.6453 61.287 67.5335 61.3778 67.4148C61.4756 67.2891 61.5943 67.1738 61.734 67.069C61.8807 66.9643 62.0379 66.8805 62.2055 66.8176C62.3801 66.7478 62.5477 66.7128 62.7084 66.7128C62.9738 66.7128 63.2078 66.8979 63.4103 67.2681C63.6129 67.6313 63.8015 68.2145 63.9761 69.0177C64.011 69.1574 64.0389 69.2552 64.0599 69.3111C64.0808 69.367 64.1088 69.3949 64.1437 69.3949C64.2205 69.3949 64.2694 69.2762 64.2904 69.0387C64.3742 68.3752 64.5174 67.8059 64.7199 67.331C64.9225 66.849 65.1739 66.4544 65.4743 66.1471C65.7816 65.8328 66.1308 65.6023 66.5219 65.4556C66.9201 65.3089 67.3566 65.2356 67.8315 65.2356C68.1039 65.2356 68.3798 65.2601 68.6592 65.3089C68.9386 65.3578 69.19 65.4312 69.4135 65.529C69.637 65.6267 69.8186 65.7455 69.9583 65.8852C70.098 66.0249 70.1679 66.182 70.1679 66.3566C70.1679 66.4823 70.1399 66.6325 70.0841 66.8071C70.0352 66.9748 69.9688 67.1389 69.885 67.2995C69.8012 67.4532 69.7034 67.5859 69.5916 67.6977C69.4869 67.8024 69.3786 67.8548 69.2669 67.8548C69.1411 67.8548 69.0189 67.8199 68.9002 67.75C68.7814 67.6732 68.6522 67.5929 68.5125 67.5091C68.3798 67.4253 68.2366 67.3484 68.083 67.2786C67.9363 67.2018 67.7687 67.1633 67.5801 67.1633ZM71.0794 64.3136C70.8768 64.3136 70.6847 64.2857 70.5031 64.2298C70.3285 64.167 70.1749 64.0832 70.0422 63.9784C69.9164 63.8666 69.8152 63.7374 69.7383 63.5907C69.6615 63.4441 69.6231 63.2834 69.6231 63.1088C69.6231 62.8155 69.7383 62.578 69.9688 62.3964C70.2063 62.2148 70.5206 62.124 70.9117 62.124C71.0933 62.124 71.2679 62.1589 71.4356 62.2288C71.6032 62.2916 71.7499 62.3789 71.8756 62.4907C72.0083 62.6024 72.1131 62.7351 72.1899 62.8888C72.2667 63.0355 72.3051 63.1891 72.3051 63.3498C72.3051 63.6501 72.1934 63.8876 71.9699 64.0622C71.7534 64.2298 71.4565 64.3136 71.0794 64.3136ZM69.644 67.5091C69.644 67.2646 69.7488 67.0656 69.9583 66.9119C70.1749 66.7513 70.4577 66.6709 70.807 66.6709C71.4356 66.6709 71.7708 66.8875 71.8127 67.3205C71.8407 67.6208 71.8686 67.9596 71.8966 68.3367C71.9315 68.7139 71.9629 69.1155 71.9908 69.5416C72.0258 69.9607 72.0537 70.3972 72.0747 70.8512C72.1026 71.2982 72.127 71.7417 72.148 72.1817C72.1689 72.6148 72.1864 73.0339 72.2004 73.439C72.2143 73.8441 72.2213 74.2142 72.2213 74.5495C72.2213 74.8987 72.0956 75.1606 71.8442 75.3353C71.5997 75.5099 71.24 75.5972 70.7651 75.5972C70.5485 75.5972 70.3774 75.5448 70.2517 75.44C70.133 75.3422 70.0736 75.1956 70.0736 75C70.0736 74.0361 70.0491 73.1351 70.0002 72.297C69.9583 71.4519 69.9094 70.701 69.8536 70.0445C69.8047 69.3879 69.7558 68.8431 69.7069 68.4101C69.665 67.9701 69.644 67.6697 69.644 67.5091ZM73.1433 67.6872C73.1433 67.4148 73.2655 67.2087 73.51 67.069C73.7544 66.9224 74.1037 66.849 74.5577 66.849C74.6624 66.849 74.7567 66.863 74.8405 66.8909C74.9243 66.9189 74.9977 66.9748 75.0605 67.0586C75.1304 67.1354 75.1933 67.2437 75.2491 67.3834C75.305 67.523 75.3609 67.7012 75.4168 67.9177C75.4726 68.1621 75.5285 68.2844 75.5844 68.2844C75.6333 68.2844 75.6926 68.1831 75.7625 67.9805C75.8882 67.5824 76.0524 67.2367 76.2549 66.9433C76.4644 66.643 76.6984 66.395 76.9568 66.1995C77.2153 65.9969 77.4947 65.8468 77.795 65.749C78.1023 65.6512 78.4236 65.6023 78.7589 65.6023C79.4364 65.6023 80.0685 65.7315 80.6552 65.9899C81.2419 66.2414 81.7482 66.5941 82.1743 67.0481C82.6004 67.4951 82.9356 68.0259 83.1801 68.6406C83.4245 69.2482 83.5468 69.9083 83.5468 70.6207C83.5468 71.375 83.4141 72.0735 83.1486 72.7161C82.8902 73.3586 82.527 73.9139 82.0591 74.3819C81.5911 74.8428 81.0323 75.2026 80.3828 75.461C79.7402 75.7264 79.0348 75.8591 78.2665 75.8591L77.7321 75.8381C77.4178 75.8381 77.2607 76.0163 77.2607 76.3725L77.795 81.1813C77.788 81.3001 77.7461 81.4083 77.6693 81.5061C77.5994 81.6109 77.5016 81.7017 77.3759 81.7785C77.2572 81.8553 77.114 81.9147 76.9464 81.9566C76.7857 81.9985 76.6181 82.0195 76.4435 82.0195C75.9406 82.0195 75.6682 81.8553 75.6263 81.5271C75.4796 80.2559 75.3155 79.0475 75.1339 77.9021C74.9593 76.7566 74.7777 75.6915 74.5891 74.7066C74.4075 73.7148 74.2294 72.8138 74.0548 72.0036C73.8802 71.1934 73.723 70.488 73.5833 69.8873C73.4506 69.2866 73.3458 68.7977 73.269 68.4206C73.1852 68.0434 73.1433 67.7989 73.1433 67.6872ZM76.5483 70.4531C76.5483 70.9071 76.5657 71.3576 76.6006 71.8046C76.6356 72.2446 76.6914 72.723 76.7683 73.2399C76.8102 73.5542 76.9813 73.7323 77.2816 73.7742C77.4632 73.8161 77.6658 73.858 77.8893 73.8999C78.1198 73.9349 78.3119 73.9523 78.4655 73.9523C78.9125 73.9523 79.3176 73.886 79.6808 73.7533C80.044 73.6206 80.3548 73.432 80.6133 73.1875C80.8717 72.9361 81.0707 72.6392 81.2104 72.297C81.3501 71.9547 81.42 71.5741 81.42 71.155C81.42 70.6451 81.3501 70.1702 81.2104 69.7302C81.0707 69.2831 80.8787 68.8955 80.6342 68.5672C80.3967 68.239 80.1139 67.9805 79.7856 67.7919C79.4643 67.6034 79.1151 67.5091 78.7379 67.5091C78.4096 67.5091 78.1093 67.5824 77.8369 67.7291C77.5715 67.8688 77.341 68.0678 77.1454 68.3263C76.9568 68.5777 76.8102 68.885 76.7054 69.2482C76.6006 69.6114 76.5483 70.013 76.5483 70.4531ZM85.6945 62.8993C85.6945 62.5291 85.7993 62.2707 86.0088 62.124C86.2184 61.9703 86.5641 61.8935 87.046 61.8935C87.2206 61.8935 87.3673 61.911 87.486 61.9459C87.6118 61.9738 87.7165 62.0297 87.8004 62.1135C87.8912 62.1973 87.961 62.3091 88.0099 62.4488C88.0658 62.5815 88.1112 62.7526 88.1461 62.9621C88.2299 63.6117 88.3207 64.2822 88.4185 64.9737C88.5233 65.6652 88.6315 66.3601 88.7433 67.0586C88.7852 67.3729 88.9493 67.53 89.2357 67.53C89.3125 67.53 89.4382 67.523 89.6128 67.5091C89.7944 67.4881 90.0075 67.4672 90.2519 67.4462C90.4964 67.4183 90.7583 67.3903 91.0377 67.3624C91.3241 67.3345 91.6069 67.31 91.8863 67.2891C92.1727 67.2611 92.4416 67.2402 92.693 67.2262C92.9515 67.2052 93.1785 67.1948 93.374 67.1948C93.5277 67.1948 93.6499 67.2262 93.7407 67.2891C93.8315 67.3449 93.9014 67.4218 93.9502 67.5196C94.0061 67.6104 94.041 67.7151 94.055 67.8339C94.076 67.9456 94.0864 68.0609 94.0864 68.1796C94.0864 68.2844 94.0655 68.3926 94.0236 68.5044C93.9887 68.6161 93.9363 68.7174 93.8664 68.8082C93.8036 68.892 93.7232 68.9619 93.6255 69.0177C93.5277 69.0736 93.4159 69.1016 93.2902 69.1016C92.6826 69.1016 92.0679 69.1225 91.4463 69.1644C90.8316 69.1993 90.217 69.2482 89.6024 69.3111C89.2881 69.353 89.1309 69.5101 89.1309 69.7825C89.1309 69.8035 89.1344 69.8314 89.1414 69.8664C89.1484 69.8943 89.1519 69.9187 89.1519 69.9397C89.2357 70.5474 89.3125 71.1166 89.3824 71.6474C89.4592 72.1782 89.522 72.6532 89.5709 73.0723C89.6268 73.4844 89.6687 73.8301 89.6967 74.1095C89.7316 74.3819 89.749 74.5635 89.749 74.6543C89.749 74.9057 89.7246 75.1152 89.6757 75.2829C89.6268 75.4575 89.5465 75.5972 89.4347 75.7019C89.323 75.8137 89.1728 75.8905 88.9842 75.9324C88.8026 75.9813 88.5721 76.0058 88.2928 76.0058C88.0274 76.0058 87.8318 75.9429 87.7061 75.8172C87.5803 75.6915 87.5105 75.4994 87.4965 75.241C87.4546 74.4168 87.3883 73.5891 87.2975 72.758C87.2067 71.9198 87.1019 71.0852 86.9832 70.254C86.9203 69.9537 86.7631 69.8035 86.5117 69.8035C86.4908 69.8035 86.4663 69.807 86.4384 69.814C86.4104 69.821 86.386 69.8245 86.365 69.8245C85.932 69.9222 85.5234 70.02 85.1392 70.1178C84.7551 70.2156 84.3954 70.3204 84.0601 70.4321C83.8715 70.495 83.7039 70.5404 83.5572 70.5683C83.4106 70.5893 83.2779 70.5997 83.1591 70.5997C82.9985 70.5997 82.8797 70.5299 82.8029 70.3902C82.7261 70.2435 82.6877 70.0619 82.6877 69.8454C82.6877 69.7686 82.6947 69.6813 82.7086 69.5835C82.7226 69.4787 82.7505 69.3774 82.7924 69.2797C82.8274 69.1749 82.8832 69.0806 82.9601 68.9968C83.0299 68.906 83.1277 68.8326 83.2534 68.7768C83.5468 68.658 83.9379 68.5358 84.4268 68.4101C84.9157 68.2774 85.4675 68.1551 86.0822 68.0434C86.2218 68.0085 86.3301 67.9526 86.4069 67.8758C86.4908 67.7919 86.5327 67.6697 86.5327 67.5091C86.5327 67.4742 86.5327 67.4392 86.5327 67.4043C86.5327 67.3624 86.5257 67.3205 86.5117 67.2786C86.4 66.636 86.2917 66.0528 86.1869 65.529C86.0891 64.9981 86.0018 64.5441 85.925 64.167C85.8552 63.7898 85.7993 63.493 85.7574 63.2764C85.7155 63.0599 85.6945 62.9342 85.6945 62.8993Z" fill="#5E438F" />
  <circle cx="50.5" cy="34.5" r="21.5" fill="#A276DA" />
  <circle cx="60" cy="24" r="10" fill="#CB95F8" />
  <circle cx="38" cy="48" r="5" fill="#5E438F" />
</svg>
  